<?xml version="1.0" standalone="no"?>
<!DOCTYPE svg PUBLIC "-//W3C//DTD SVG 20010904//EN"
 "http://www.w3.org/TR/2001/REC-SVG-20010904/DTD/svg10.dtd">
<svg version="1.0" xmlns="http://www.w3.org/2000/svg"
 width="1080.000000pt" height="1080.000000pt" viewBox="0 0 1080.000000 1080.000000"
 preserveAspectRatio="xMidYMid meet">

<g transform="translate(0.000000,1080.000000) scale(0.100000,-0.100000)"
fill="#000000" stroke="none">
<path d="M5165 8720 c-483 -52 -950 -276 -1300 -625 -309 -309 -502 -664 -597
-1100 -28 -128 -31 -160 -35 -380 -7 -322 13 -469 101 -739 151 -462 469 -875
881 -1144 91 -60 310 -172 405 -208 41 -16 78 -33 82 -39 181 -281 247 -382
361 -558 299 -460 331 -507 341 -504 10 3 33 40 108 177 35 64 207 365 225
395 7 11 16 27 20 35 4 8 40 73 80 144 40 71 73 130 73 131 0 1 20 37 45 80
l44 78 113 38 c416 141 814 444 1072 816 118 169 225 384 281 563 14 47 30 96
35 110 9 26 21 81 39 185 57 316 37 690 -55 995 -175 581 -567 1051 -1104
1325 -201 102 -396 166 -636 210 -104 19 -457 28 -579 15z m545 -205 c377 -62
690 -208 989 -459 230 -193 451 -513 558 -806 91 -249 117 -400 118 -685 0
-225 -9 -314 -46 -470 -105 -432 -355 -824 -698 -1095 l-44 -34 7 84 c5 62 12
92 26 110 77 96 78 98 72 146 -3 26 -13 57 -23 68 -28 32 -25 40 17 52 28 8
47 23 68 51 l28 41 -21 63 c-32 96 -33 95 54 91 62 -4 80 -1 109 17 32 20 66
80 66 118 0 17 -40 133 -146 423 -41 113 -67 201 -67 225 0 22 12 85 27 140
26 95 27 108 23 265 -8 282 -86 546 -233 793 -161 269 -447 453 -854 548 -115
27 -357 58 -510 65 l-125 6 -34 -35 -34 -36 -1 -213 -1 -213 29 -55 c31 -59
174 -207 228 -237 28 -15 58 -18 188 -18 85 0 167 3 182 8 15 4 44 22 64 39
33 29 41 32 112 32 69 1 81 4 119 31 57 41 83 90 83 156 0 64 -27 122 -77 164
-30 25 -46 30 -103 33 -75 5 -109 -8 -156 -58 -48 -51 -68 -142 -44 -205 8
-20 6 -29 -10 -45 -18 -18 -34 -20 -163 -20 l-144 0 -76 79 c-42 43 -81 90
-87 105 -5 15 -10 99 -10 187 l0 159 78 0 c212 0 484 -53 706 -137 174 -66
291 -139 396 -247 65 -67 170 -217 170 -242 0 -10 -17 -14 -65 -14 -61 0 -65
1 -80 29 -41 80 -102 115 -191 109 -52 -3 -70 -9 -101 -34 -61 -49 -83 -89
-83 -149 0 -66 19 -110 64 -154 l36 -35 0 -246 0 -247 -187 -7 c-206 -7 -226
-13 -237 -67 -3 -17 -6 -89 -6 -159 l0 -128 -26 -6 c-14 -4 -34 -4 -45 -1 -18
6 -19 18 -19 177 l0 170 -37 37 c-21 20 -64 60 -96 88 l-58 52 3 163 3 163
105 -3 c58 -2 110 -8 115 -13 6 -6 10 -47 10 -92 0 -94 16 -126 88 -178 70
-51 178 -37 243 33 45 47 56 73 56 130 -1 71 -34 133 -91 170 -43 28 -51 29
-122 25 -72 -5 -78 -3 -105 22 -24 22 -40 27 -114 33 -135 10 -257 9 -284 -3
-13 -6 -27 -21 -30 -33 -3 -11 -6 -122 -6 -246 1 -162 4 -229 13 -240 7 -8 49
-48 95 -89 l82 -73 0 -148 0 -148 -121 -4 -122 -3 -204 -210 c-112 -115 -218
-228 -234 -249 l-29 -39 0 -204 c0 -128 -4 -203 -10 -203 -21 0 -89 -73 -100
-106 -30 -89 -2 -181 71 -233 129 -94 309 -1 309 159 0 67 -29 123 -85 162
l-45 32 0 179 0 179 58 62 c32 33 94 99 138 145 43 47 104 110 134 141 l56 57
309 6 c171 4 387 7 482 7 94 0 182 4 196 9 14 6 40 37 64 78 22 37 66 113 99
168 l59 100 5 105 5 105 104 0 c95 0 104 -2 107 -19 6 -44 -18 -187 -45 -269
l-30 -87 29 -82 c36 -105 95 -268 154 -426 25 -68 46 -129 46 -137 0 -11 -18
-12 -92 -8 -114 6 -143 -3 -165 -54 -14 -36 -14 -42 6 -104 11 -36 21 -72 21
-81 0 -9 -17 -24 -37 -33 -53 -24 -70 -42 -84 -82 -10 -31 -8 -41 22 -99 l32
-65 -32 -33 c-35 -36 -61 -113 -61 -181 0 -61 -19 -115 -50 -147 -25 -25 -35
-28 -94 -28 -105 0 -195 23 -426 107 -209 76 -370 166 -465 260 -146 143 -198
262 -193 443 3 103 -1 116 -38 130 -31 12 -68 -4 -83 -37 -16 -35 -13 -207 4
-281 43 -181 173 -341 395 -486 160 -105 426 -206 673 -256 31 -6 57 -15 57
-19 0 -8 -227 -93 -311 -116 l-55 -15 -75 -132 c-41 -72 -87 -154 -102 -182
-16 -28 -61 -107 -99 -176 -39 -69 -82 -145 -96 -170 -14 -25 -36 -63 -49 -85
-13 -22 -31 -55 -40 -72 -9 -18 -19 -33 -22 -33 -3 1 -27 33 -53 73 -25 40
-84 131 -130 202 -47 72 -115 177 -153 235 -37 58 -107 164 -154 237 l-86 132
-90 31 c-172 60 -349 156 -527 285 -87 63 -284 253 -334 320 -16 22 -37 49
-47 60 -66 73 -200 311 -261 465 -207 525 -184 1110 66 1618 55 113 182 312
198 312 6 0 10 -69 10 -194 l0 -194 48 -39 c26 -21 67 -52 92 -68 85 -56 165
-117 173 -131 5 -8 7 -144 5 -302 -3 -326 -13 -283 97 -437 l65 -90 0 -212 0
-212 -30 -16 c-39 -20 -86 -85 -94 -130 -15 -76 36 -180 104 -215 145 -74 316
54 286 213 -9 47 -54 113 -92 133 l-33 18 -3 231 -3 230 -84 120 -84 120 5
553 c3 304 8 555 12 559 3 3 55 -18 116 -48 l110 -54 0 -62 c0 -58 -2 -63 -27
-75 -16 -7 -43 -36 -61 -63 -32 -46 -34 -55 -30 -116 3 -53 9 -73 31 -102 48
-64 84 -82 159 -82 57 0 72 4 110 30 25 18 53 49 66 75 47 91 9 216 -80 261
l-38 19 0 80 c0 43 -4 89 -9 102 -13 35 -383 221 -431 216 -57 -5 -60 -20 -60
-310 0 -142 -3 -258 -7 -257 -5 0 -46 29 -93 63 l-85 63 -3 250 -2 250 77 73
c318 298 726 484 1165 530 114 12 393 4 508 -15z m180 -735 c39 -39 19 -95
-36 -106 -61 -12 -98 62 -54 106 11 11 31 20 45 20 14 0 34 -9 45 -20z m350
-302 c11 -12 20 -31 20 -43 0 -25 -34 -65 -55 -65 -26 0 -65 23 -71 42 -20 66
60 116 106 66z m373 -188 c26 -69 60 -198 72 -277 l7 -43 -150 0 c-167 0 -177
-4 -186 -63 -3 -18 -7 -81 -9 -142 l-4 -110 -74 -121 -74 -121 -80 -7 c-44 -3
-133 -6 -198 -6 l-119 0 4 108 3 107 199 10 c190 10 199 11 217 34 18 22 19
43 19 307 0 241 2 284 14 284 27 0 85 41 106 76 l22 34 103 0 103 0 25 -70z
m-1981 38 c22 -18 29 -55 16 -84 -9 -19 -19 -24 -49 -24 -44 0 -69 21 -69 57
0 52 62 83 102 51z m1228 -158 c11 -11 20 -31 20 -45 0 -14 -9 -34 -20 -45
-11 -11 -31 -20 -45 -20 -14 0 -34 9 -45 20 -11 11 -20 31 -20 45 0 14 9 34
20 45 11 11 31 20 45 20 14 0 34 -9 45 -20z m-1431 -1447 c24 -30 20 -58 -11
-85 -27 -23 -53 -23 -78 2 -27 27 -26 75 2 94 33 23 64 19 87 -11z m434 -385
c9 -11 17 -29 17 -39 0 -27 -35 -59 -65 -59 -30 0 -65 32 -65 60 0 12 11 32
25 46 29 29 58 26 88 -8z"/>
<path d="M4852 8087 c-21 -23 -22 -31 -22 -258 0 -197 3 -238 16 -257 8 -12
58 -63 110 -114 l94 -91 0 -384 0 -384 -78 -77 c-43 -42 -130 -126 -193 -187
l-114 -110 -7 160 c-6 156 -6 160 15 175 66 45 96 82 106 128 19 90 -13 171
-86 217 -81 51 -172 41 -240 -25 -59 -58 -75 -121 -51 -201 12 -40 80 -119
102 -119 13 0 26 -229 26 -439 0 -91 15 -121 61 -121 32 0 42 9 204 166 50 48
149 145 222 215 72 71 139 139 147 151 14 20 16 77 16 458 l0 435 -110 105
-110 106 0 215 c0 203 -1 216 -20 237 -27 28 -61 28 -88 -1z m-218 -1303 c31
-30 12 -101 -27 -105 -48 -5 -72 11 -82 53 -13 52 69 92 109 52z"/>
<path d="M3768 6990 c-76 -41 -122 -143 -99 -225 12 -47 64 -113 97 -126 24
-9 24 -9 24 -187 l0 -179 -34 -18 c-69 -37 -108 -134 -86 -216 42 -159 245
-202 347 -73 36 46 47 90 39 149 -9 54 -58 130 -97 147 l-29 13 0 177 c0 165
1 177 19 183 30 9 85 76 100 122 28 86 -16 191 -98 233 -52 26 -133 26 -183 0z
m130 -126 c34 -23 27 -83 -10 -104 -25 -13 -31 -13 -55 0 -38 21 -45 81 -11
104 12 9 29 16 38 16 9 0 26 -7 38 -16z m4 -731 c21 -19 24 -75 5 -91 -28 -24
-64 -24 -86 -1 -56 61 20 148 81 92z"/>
<path d="M7805 3476 c-116 -43 -127 -164 -20 -216 52 -25 152 -27 201 -4 45
22 84 69 84 102 0 38 -33 88 -72 108 -44 23 -143 28 -193 10z"/>
<path d="M8520 3476 c-72 -21 -125 -52 -155 -91 -30 -40 -55 -111 -55 -157 0
-26 -3 -28 -40 -28 -48 0 -53 -18 -11 -42 48 -27 52 -65 49 -385 l-3 -285 -37
-33 c-21 -18 -38 -35 -38 -39 0 -3 115 -6 255 -6 140 0 255 3 255 8 -1 4 -15
16 -33 27 -52 33 -58 78 -54 385 3 288 7 310 59 332 49 22 35 38 -36 38 -49 0
-69 5 -90 21 -108 85 -46 264 85 246 45 -6 60 -19 114 -101 42 -64 74 -84 117
-73 22 6 48 42 48 67 0 22 -60 75 -110 98 -45 20 -75 25 -165 28 -72 2 -126
-1 -155 -10z"/>
<path d="M850 3457 c0 -7 13 -17 28 -23 17 -7 35 -25 45 -46 15 -32 17 -81 16
-450 -1 -227 -4 -424 -8 -438 -4 -14 -22 -35 -41 -48 -19 -13 -36 -27 -38 -33
-2 -5 104 -9 272 -9 267 0 315 6 254 29 -13 5 -32 19 -43 31 -18 20 -20 39
-23 216 l-4 194 36 0 c92 0 126 -35 172 -174 45 -137 65 -177 112 -222 65 -61
119 -74 312 -74 174 0 201 7 137 34 -50 20 -72 56 -112 179 -51 158 -86 206
-180 251 l-46 23 48 18 c164 60 244 221 179 360 -44 94 -114 146 -241 180 -80
20 -875 23 -875 2z m657 -53 c21 -17 49 -51 63 -75 22 -40 25 -55 25 -154 0
-102 -2 -114 -28 -160 -41 -75 -83 -99 -179 -104 l-78 -3 0 267 0 267 79 -3
c71 -4 83 -7 118 -35z"/>
<path d="M2960 3457 c0 -7 10 -17 23 -22 12 -6 30 -26 39 -45 16 -32 18 -75
18 -453 0 -455 -2 -468 -55 -497 -14 -7 -25 -17 -25 -22 0 -4 115 -8 255 -8
236 0 294 6 234 25 -11 4 -29 21 -40 38 -18 30 -19 53 -19 325 0 318 3 336 55
360 34 16 60 15 94 -2 48 -25 51 -46 51 -327 0 -279 2 -295 54 -356 14 -17 44
-40 65 -51 51 -27 154 -45 206 -38 48 8 105 40 105 60 0 28 -23 29 -45 2 -12
-14 -24 -23 -28 -20 -4 4 -7 143 -7 309 0 329 -2 346 -57 396 -103 96 -321
118 -460 45 l-33 -17 0 156 0 155 -215 0 c-167 0 -215 -3 -215 -13z"/>
<path d="M2428 3205 c-144 -31 -264 -123 -321 -243 -28 -60 -32 -76 -32 -162
0 -86 3 -101 33 -165 40 -84 120 -166 198 -202 182 -83 418 -59 565 58 41 33
49 56 23 66 -11 4 -28 -8 -55 -39 -66 -78 -135 -96 -215 -57 -74 36 -152 148
-157 226 l-2 36 85 15 c171 29 305 95 349 173 37 65 23 160 -32 213 -84 81
-278 117 -439 81z m197 -36 c17 -16 20 -33 20 -97 0 -66 -5 -86 -32 -142 -34
-70 -127 -173 -153 -168 -23 5 -27 237 -5 312 33 114 108 156 170 95z"/>
<path d="M4419 3206 c-147 -33 -264 -121 -322 -244 -29 -60 -32 -77 -32 -157
0 -126 28 -198 112 -283 75 -76 157 -117 264 -132 154 -21 314 17 420 101 41
33 49 56 23 66 -11 4 -29 -9 -57 -42 -45 -52 -88 -75 -142 -75 -93 0 -188 97
-230 236 -14 47 -9 54 40 54 12 0 65 11 118 24 199 51 297 129 297 236 0 106
-77 181 -222 215 -75 17 -191 18 -269 1z m199 -44 c21 -24 23 -35 19 -99 -6
-107 -61 -210 -151 -280 -56 -44 -58 -39 -54 130 3 133 6 159 27 204 37 84
109 104 159 45z"/>
<path d="M5303 3204 c-111 -24 -183 -74 -183 -127 0 -35 24 -56 64 -57 31 0
71 36 119 109 69 104 193 82 204 -36 8 -84 -34 -117 -230 -180 -131 -42 -211
-80 -251 -119 -83 -83 -88 -227 -11 -313 107 -118 362 -132 500 -26 l34 25 48
-33 c63 -45 113 -61 198 -61 97 -1 172 42 136 77 -10 9 -18 6 -35 -15 -12 -16
-25 -28 -29 -28 -4 0 -7 137 -7 305 0 234 -3 313 -14 338 -16 40 -76 93 -131
117 -91 39 -291 51 -412 24z m195 -712 c-7 -15 -30 -35 -50 -45 -33 -16 -40
-16 -71 -4 -46 20 -61 59 -55 150 5 81 42 167 131 304 26 39 48 77 49 85 2 7
4 -94 5 -225 3 -177 0 -245 -9 -265z"/>
<path d="M6489 3207 c-41 -15 -85 -45 -112 -75 -18 -20 -19 -20 -67 10 -27 17
-75 37 -107 44 -65 15 -219 19 -227 5 -3 -5 9 -18 28 -29 54 -32 58 -59 54
-385 l-3 -289 -37 -34 c-21 -19 -38 -36 -38 -39 0 -3 115 -5 255 -5 140 0 255
3 255 8 0 4 -14 15 -30 24 -17 9 -35 29 -40 43 -6 15 -10 154 -10 330 0 303 0
304 23 331 18 20 35 28 73 31 44 4 52 2 79 -25 17 -17 37 -43 45 -59 46 -89
97 -120 145 -89 33 22 34 80 2 127 -46 70 -196 110 -288 76z"/>
<path d="M7107 3210 c-196 -35 -286 -140 -246 -284 20 -71 84 -125 249 -211
173 -89 210 -123 210 -190 0 -83 -95 -129 -218 -106 -81 15 -132 41 -193 98
-45 42 -79 52 -79 24 0 -31 134 -113 223 -137 81 -21 176 -27 259 -15 214 30
334 126 332 266 -2 124 -67 200 -244 286 -166 80 -170 82 -200 112 -34 35 -39
52 -28 94 11 41 54 58 110 43 28 -8 49 -24 79 -63 71 -91 89 -107 121 -107 50
0 68 16 68 60 0 35 -5 43 -42 70 -23 17 -64 37 -92 46 -60 18 -240 27 -309 14z"/>
<path d="M7680 3188 c0 -9 9 -18 19 -21 11 -3 29 -20 40 -38 20 -32 21 -49 21
-327 0 -317 -3 -334 -54 -362 -14 -7 -26 -17 -26 -22 0 -4 115 -8 255 -8 254
0 289 5 229 32 -50 23 -54 47 -54 309 0 278 -5 305 -66 364 -57 56 -117 75
-251 82 -97 5 -113 4 -113 -9z"/>
<path d="M8930 3188 c0 -7 15 -20 33 -28 40 -19 72 -66 96 -144 39 -122 141
-408 157 -439 27 -52 55 -85 94 -112 50 -34 90 -46 185 -54 l80 -6 -30 -31
c-16 -17 -74 -59 -127 -94 -70 -46 -102 -73 -114 -97 -31 -67 7 -113 81 -99
79 15 199 168 249 316 13 41 67 211 119 377 99 316 118 358 177 385 16 7 30
19 30 25 0 15 -175 19 -184 4 -3 -5 5 -16 19 -25 40 -27 33 -75 -51 -335 -86
-268 -116 -351 -126 -351 -5 0 -8 2 -8 3 0 2 -47 138 -105 303 -58 164 -105
313 -105 331 0 22 7 37 20 45 11 7 20 18 20 25 0 10 -57 13 -255 13 -197 0
-255 -3 -255 -12z"/>
</g>
</svg>
