<?xml version="1.0" standalone="no"?>
<!DOCTYPE svg PUBLIC "-//W3C//DTD SVG 20010904//EN"
 "http://www.w3.org/TR/2001/REC-SVG-20010904/DTD/svg10.dtd">
<svg version="1.0" xmlns="http://www.w3.org/2000/svg"
 width="1024.000000pt" height="1024.000000pt" viewBox="0 0 1024.000000 1024.000000"
 preserveAspectRatio="xMidYMid meet">

<g transform="translate(0.000000,1024.000000) scale(0.100000,-0.100000)"
fill="#000000" stroke="none">
<path d="M0 5120 l0 -5120 5120 0 5120 0 0 5120 0 5120 -5120 0 -5120 0 0
-5120z m5411 3504 c144 -19 333 -69 474 -125 189 -76 552 -299 485 -299 -8 0
-40 -37 -126 -143 -17 -21 0 -29 -155 74 -195 128 -393 212 -619 260 -160 34
-465 39 -610 9 -124 -25 -298 -77 -407 -120 -125 -50 -342 -175 -383 -220 -3
-3 -30 -25 -60 -49 -315 -247 -521 -594 -611 -1031 -21 -101 -24 -141 -23
-325 0 -206 1 -213 37 -360 114 -474 341 -821 722 -1106 73 -55 216 -142 222
-135 3 2 -1 15 -8 28 -10 18 -14 123 -16 453 -2 237 -6 448 -9 470 -7 55 -51
132 -97 169 l-39 31 -293 0 -293 0 -6 29 c-3 16 -6 46 -6 68 l0 40 308 -4
c266 -3 312 -6 347 -21 60 -27 139 -110 172 -181 l28 -61 -3 -521 c-2 -484 -1
-523 16 -542 20 -23 129 -68 140 -57 4 3 6 284 4 623 -3 686 -1 661 -72 778
l-38 60 27 32 c14 18 30 32 35 32 46 0 136 -141 154 -240 6 -33 11 -301 11
-662 l1 -607 -22 -16 -23 -17 25 7 c19 5 22 4 10 -4 -8 -6 -28 -9 -45 -6 -16
3 -5 -4 25 -15 133 -50 173 -82 247 -194 26 -39 70 -103 98 -141 27 -39 68
-101 89 -138 22 -37 42 -67 45 -66 3 0 33 42 65 92 105 162 158 240 223 328
63 86 63 86 135 108 217 67 339 124 498 231 118 80 187 142 302 267 264 289
408 579 468 943 6 36 13 77 16 92 4 19 27 41 88 82 46 31 98 59 116 62 l32 7
-7 -69 c-27 -284 -51 -411 -106 -572 -75 -216 -166 -380 -316 -570 -203 -257
-424 -438 -688 -563 -108 -51 -307 -119 -349 -119 -9 0 -16 -7 -16 -15 0 -8
-10 -36 -23 -63 -31 -61 -261 -407 -332 -497 -30 -38 -63 -87 -72 -107 l-18
-37 -75 101 c-92 124 -297 398 -368 491 -29 37 -52 77 -52 88 0 12 -7 19 -18
19 -21 0 -125 34 -227 75 -212 85 -548 310 -718 479 -44 45 -129 146 -189 226
-270 361 -401 785 -385 1248 16 491 160 883 452 1231 303 363 769 619 1250
686 131 19 410 18 556 -1z m1898 -372 c156 -54 262 -126 359 -245 69 -86 128
-199 152 -292 25 -96 27 -282 5 -365 -17 -65 -93 -220 -108 -220 -6 0 -7 -3
-4 -7 12 -11 -34 -52 -52 -46 -12 4 -13 3 -3 -5 19 -13 -12 -43 -36 -36 -13 5
-14 4 -3 -4 11 -8 5 -18 -29 -48 -23 -22 -47 -41 -53 -43 -6 -2 -19 -12 -29
-21 -29 -27 -197 -107 -262 -126 -40 -11 -103 -17 -192 -18 -102 -1 -137 -5
-151 -17 -52 -43 -401 -199 -446 -199 -6 0 -1 10 11 23 30 32 40 91 48 273 l6
159 -57 70 c-70 85 -132 210 -145 290 -14 87 -12 261 5 330 48 206 207 406
397 499 140 70 217 87 368 83 109 -3 137 -8 219 -35z m-2303 -46 c22 -22 34
-44 34 -60 0 -31 -24 -82 -41 -88 -7 -2 -11 -128 -10 -428 0 -234 -3 -553 -8
-710 -6 -232 -4 -293 7 -328 8 -24 12 -61 9 -85 -18 -143 -26 -232 -28 -304
l-2 -83 -43 0 -44 0 -1 78 c0 74 -12 227 -25 340 -5 35 -2 61 6 77 25 48 11
55 -110 55 -123 0 -120 -2 -103 80 l6 33 109 -6 108 -5 0 66 c0 37 3 322 7
634 l6 566 -26 32 c-60 70 -16 170 73 170 34 0 48 -6 76 -34z m-286 -483 c0
-502 -2 -522 -47 -623 -25 -56 -96 -130 -124 -130 -24 0 -58 37 -59 63 0 10
19 46 41 79 69 102 69 98 69 603 l0 451 48 16 c26 9 53 17 60 17 9 1 12 -101
12 -476z m650 359 c74 -73 87 -154 37 -227 -12 -16 -24 -32 -27 -35 -4 -3 -19
-15 -33 -26 l-27 -22 14 -109 c11 -88 22 -131 60 -223 26 -63 70 -173 97 -245
63 -164 210 -458 369 -735 158 -276 163 -285 155 -310 -12 -38 -51 -53 -177
-66 -66 -6 -124 -16 -128 -20 -12 -13 -19 -80 -10 -94 4 -7 28 -14 53 -17 60
-7 87 -33 87 -82 0 -62 -11 -65 -204 -71 l-171 -5 -3 -40 c-6 -68 13 -71 285
-49 61 4 62 4 78 -26 33 -64 16 -89 -88 -129 -44 -17 -45 -23 -11 -46 35 -22
54 -73 54 -140 0 -49 -4 -59 -36 -94 -54 -61 -93 -69 -344 -73 -188 -3 -214
-1 -210 12 2 8 3 449 2 980 -1 531 2 1105 6 1275 l8 310 -37 35 c-48 45 -59
68 -59 126 0 103 79 194 168 194 40 0 50 -5 92 -48z m-922 -369 l-3 -378 -27
-50 c-43 -81 -113 -136 -196 -154 -32 -7 -165 -11 -337 -11 l-285 0 0 38 c0
20 3 47 6 60 l6 22 292 0 c283 0 292 1 331 23 29 16 48 38 70 82 l30 59 -4
322 -3 322 38 21 c22 11 49 20 62 21 l23 0 -3 -377z m-312 88 c66 -30 89 -72
89 -159 l0 -73 -47 -45 c-26 -24 -56 -44 -67 -44 -12 0 -21 -3 -22 -7 -4 -40
-22 -73 -40 -73 -5 0 -9 17 -9 39 0 33 -6 43 -36 66 -52 39 -74 81 -74 139 0
67 30 126 77 154 46 26 76 27 129 3z m1535 -70 c5 9 9 -36 9 -116 0 -170 17
-340 37 -383 9 -19 35 -48 57 -64 36 -27 38 -30 15 -26 -33 6 -35 -20 -2 -28
13 -4 22 -8 20 -11 -10 -9 -57 10 -57 23 0 8 -7 14 -15 14 -8 0 -26 21 -42 47
-25 43 -28 58 -34 197 -8 164 -9 396 -2 357 4 -19 7 -21 14 -10z m-1273 -765
c28 -14 59 -38 70 -53 30 -43 53 -122 55 -188 1 -75 -32 -145 -97 -202 -74
-65 -146 -78 -240 -42 -126 47 -186 194 -141 345 44 149 207 214 353 140z
m1856 -2 c9 -8 16 -26 16 -40 l0 -24 -229 0 c-151 0 -232 4 -236 11 -11 17 4
57 23 62 9 3 106 5 214 6 166 1 199 -1 212 -15z m-2314 -79 l0 -65 -207 2
-208 3 -3 57 -3 57 138 4 c76 1 171 4 211 5 l72 2 0 -65z m2360 -220 c0 -24
-3 -25 -53 -25 -48 0 -77 12 -77 31 0 9 36 15 93 18 33 1 37 -2 37 -24z m-197
-30 c9 -19 41 -67 70 -107 65 -89 80 -115 73 -133 -3 -10 7 -8 37 6 54 24 91
24 141 -1 44 -21 90 -82 101 -132 23 -102 -84 -215 -182 -192 -48 11 -103 47
-124 80 -25 42 -27 88 -4 151 l18 51 -70 80 c-38 45 -81 102 -94 127 l-24 45
-57 0 c-58 0 -58 0 -58 30 l0 30 78 0 78 0 17 -35z m-2172 -51 c3 -33 5 -60 3
-62 -1 -2 -90 -6 -199 -9 -225 -7 -215 -11 -215 77 l0 56 203 -2 202 -2 6 -58z
m1090 -500 c66 -59 62 -205 -5 -236 l-26 -11 0 -456 c-1 -385 -3 -459 -15
-475 -8 -11 -15 -14 -15 -7 0 7 -4 9 -10 6 -6 -4 -11 6 -11 22 l-1 28 -8 -30
-8 -30 -1 33 c0 17 -5 32 -11 32 -5 0 -11 -15 -11 -32 -1 -28 -2 -27 -9 12 -4
25 -7 236 -6 470 l1 425 -23 18 c-72 58 -68 167 9 231 29 24 39 28 81 24 28
-3 57 -13 69 -24z m-1013 -38 c77 -41 137 -145 116 -201 -6 -16 -50 -40 -66
-37 -5 1 -8 -4 -8 -10 0 -7 -15 19 -34 57 -18 39 -41 77 -50 85 -28 22 -85 18
-107 -8 -23 -29 -16 -48 33 -93 39 -35 39 -35 20 -59 -35 -43 -114 -8 -141 63
-25 66 5 163 63 198 38 23 134 26 174 5z m49 -288 c-3 -8 -6 -5 -6 6 -1 11 2
17 5 13 3 -3 4 -12 1 -19z m8 -30 c-3 -8 4 -14 19 -14 58 -4 116 -73 116 -139
0 -45 -42 -110 -79 -123 -56 -20 -135 46 -148 121 -6 40 20 92 56 115 12 7 21
21 21 32 0 11 4 20 10 20 5 0 7 -6 5 -12z m4270 -1538 c0 -8 -11 -17 -25 -20
-24 -6 -25 -8 -22 -83 4 -73 3 -77 -17 -77 -20 0 -21 6 -21 79 0 74 -1 80 -20
76 -23 -4 -34 9 -26 31 8 21 131 16 131 -6z m67 3 c9 -10 25 -36 36 -58 l20
-40 19 34 c54 99 74 92 76 -29 2 -59 -2 -84 -10 -87 -9 -3 -13 10 -13 48 l0
53 -31 -42 c-17 -23 -36 -42 -42 -42 -7 0 -21 15 -32 33 l-20 32 -3 -42 c-2
-33 -7 -43 -20 -43 -15 0 -17 12 -17 100 0 103 6 118 37 83z m-1239 -246 c62
-49 66 -157 8 -209 -52 -46 -143 -36 -188 22 -21 27 -26 93 -9 133 30 72 131
101 189 54z m-3595 -212 c-2 -124 -3 -225 -2 -225 1 0 25 16 54 35 57 39 135
65 190 65 102 0 204 -64 246 -154 23 -50 24 -57 24 -351 l0 -300 -100 0 c-100
0 -100 0 -100 25 -1 14 0 133 0 265 0 216 -1 243 -18 275 -25 46 -64 64 -133
64 -73 -1 -124 -31 -150 -88 -16 -36 -19 -69 -19 -293 l0 -253 -97 0 -98 0 -1
575 -2 574 97 4 c53 1 100 4 105 5 5 1 7 -96 4 -223z m4261 204 l28 -10 -14
-86 c-7 -48 -16 -89 -18 -91 -2 -3 -31 3 -63 12 -84 23 -116 21 -153 -12 -27
-24 -32 -36 -36 -96 l-6 -67 214 3 213 3 32 -85 c17 -47 42 -110 56 -140 14
-30 45 -115 69 -187 24 -73 46 -133 49 -133 4 0 14 26 24 58 9 31 32 95 50
142 18 47 55 145 82 218 l49 132 112 0 113 0 -24 -62 c-13 -35 -45 -112 -70
-171 -26 -60 -69 -164 -95 -230 -27 -67 -64 -153 -81 -192 -18 -38 -50 -119
-72 -180 -48 -137 -80 -189 -141 -231 -67 -46 -140 -60 -235 -44 l-74 13 6 36
c3 20 8 62 12 94 4 31 10 57 14 57 4 0 24 -7 43 -15 46 -19 87 -19 114 0 28
20 87 143 75 158 -5 7 -39 86 -76 177 -38 91 -96 233 -131 315 -34 83 -73 177
-86 210 l-24 60 -3 -82 -3 -83 -107 0 -107 0 8 -267 c5 -148 5 -287 2 -310
l-6 -43 -95 0 -94 0 0 310 0 310 -50 0 -50 0 0 54 c0 29 -3 68 -6 85 l-6 31
56 0 56 0 0 68 c0 57 5 80 31 130 57 116 157 167 307 157 45 -4 95 -11 111
-16z m-5581 -38 c109 -38 181 -94 224 -176 30 -56 37 -212 14 -283 -25 -73
-77 -134 -147 -172 l-60 -32 23 -36 c12 -20 75 -117 140 -214 65 -97 118 -180
118 -183 0 -4 -24 -5 -52 -1 -29 3 -87 6 -128 6 l-75 1 -77 132 c-42 73 -93
160 -113 195 l-36 62 -84 0 c-46 0 -90 3 -99 6 -14 5 -16 -16 -16 -194 0 -232
12 -212 -127 -212 l-83 0 0 563 0 564 258 -2 c237 -1 262 -3 320 -24z m4450
-308 c24 -8 75 -29 113 -46 l69 -32 -40 -66 -40 -65 -61 29 c-47 24 -77 31
-137 34 -95 5 -126 -8 -130 -55 -5 -47 30 -74 140 -106 195 -57 255 -97 278
-186 39 -148 -84 -289 -267 -306 -108 -10 -223 26 -332 106 -38 28 -42 34 -27
42 9 5 30 34 47 63 l30 54 44 -34 c58 -43 129 -66 210 -67 56 0 70 3 91 23 56
52 20 102 -96 135 -140 39 -205 67 -246 108 -109 108 -74 284 70 358 76 39
189 44 284 11z m-3623 -20 c136 -70 224 -230 213 -390 l-3 -46 -278 0 c-153 0
-279 -3 -282 -6 -2 -4 9 -29 23 -56 44 -81 130 -124 221 -110 56 8 77 19 117
57 l31 29 54 -50 c30 -28 57 -51 62 -51 38 -1 -68 -96 -144 -129 -179 -79
-446 20 -525 194 -47 103 -54 236 -17 344 20 62 83 143 140 183 78 53 135 69
238 65 77 -3 99 -8 150 -34z m1637 4 c71 -32 133 -94 166 -166 23 -49 26 -69
27 -164 l0 -109 -267 2 c-293 1 -280 4 -257 -57 27 -72 98 -115 190 -114 64 0
111 17 164 57 l35 27 54 -49 c30 -27 54 -54 55 -61 1 -15 -83 -85 -135 -112
-133 -69 -328 -37 -452 74 -123 111 -161 329 -83 483 52 103 108 156 210 199
77 33 210 28 293 -10z m773 4 c67 -29 108 -71 138 -140 24 -54 25 -67 32 -343
l6 -288 -90 0 c-50 0 -91 1 -91 3 -1 1 -3 20 -6 42 -4 22 -8 42 -9 43 -2 2
-26 -14 -54 -36 -63 -50 -109 -66 -186 -66 -115 1 -186 40 -229 126 -39 78
-37 159 7 224 68 103 167 140 350 131 l107 -5 0 47 c0 86 -52 124 -165 124
-77 -1 -170 -30 -200 -63 -17 -19 -18 -19 -37 18 -11 20 -33 53 -48 73 l-29
37 62 33 c109 58 159 70 282 66 87 -3 120 -8 160 -26z m1705 -371 l0 -400
-100 0 -100 0 0 273 c0 151 3 328 7 395 l6 121 86 4 c47 1 89 4 94 5 4 1 7
-178 7 -398z m-1227 313 c-3 -77 -3 -78 14 -53 39 55 90 104 120 117 18 7 60
13 93 13 l60 0 -6 -87 c-4 -49 -8 -89 -9 -91 -2 -2 -40 -4 -85 -5 l-81 -2 -39
-41 c-21 -23 -43 -59 -49 -80 -6 -23 -11 -134 -11 -261 l0 -223 -94 0 c-89 0
-94 1 -100 23 -3 12 -6 187 -6 389 0 284 3 367 13 371 6 3 50 6 97 6 l85 1 -2
-77z m-3088 -1067 c19 -50 35 -99 35 -109 0 -31 -33 -15 -42 21 -7 26 -13 32
-36 32 -51 0 -72 -11 -72 -36 0 -19 -5 -24 -25 -24 -14 0 -25 4 -25 9 0 8 21
57 82 191 19 42 21 43 34 25 8 -10 30 -59 49 -109z m139 108 c3 -9 6 -63 6
-120 0 -86 -3 -104 -15 -104 -12 0 -15 20 -15 120 0 110 8 145 24 104z m1333
-82 l37 -75 18 39 c9 21 24 56 32 77 18 44 36 49 36 9 0 -32 -74 -192 -89
-192 -6 0 -17 10 -25 23 -15 23 -76 191 -76 209 0 24 32 -19 67 -90z m-1043
10 c11 -120 8 -152 -12 -152 -17 0 -20 11 -25 93 -7 102 -2 138 18 131 7 -3
15 -32 19 -72z m159 16 l62 -63 3 63 c2 44 7 62 16 62 8 0 17 -7 20 -16 11
-28 7 -212 -5 -219 -6 -4 -35 20 -65 54 -31 34 -60 61 -66 61 -7 0 -8 -15 -4
-39 7 -45 0 -71 -20 -71 -11 0 -14 23 -14 115 0 63 3 115 6 115 3 0 33 -28 67
-62z m527 37 c0 -26 -10 -29 -72 -25 -19 1 -28 -3 -28 -13 0 -15 29 -27 68
-27 17 0 22 -6 22 -25 0 -23 -3 -25 -51 -25 -43 0 -50 -3 -47 -17 2 -14 15
-19 56 -21 49 -3 52 -5 52 -30 0 -27 -1 -27 -70 -27 l-70 0 0 112 0 112 63 4
c34 2 65 4 70 5 4 1 7 -9 7 -23z m163 15 c70 0 101 -67 56 -124 -21 -27 -19
-36 14 -73 20 -22 20 -23 1 -23 -10 0 -35 18 -55 40 -20 22 -42 40 -48 40 -6
0 -11 -17 -11 -40 0 -33 -3 -40 -20 -40 -19 0 -20 7 -20 116 0 116 0 116 23
110 12 -3 39 -6 60 -6z m745 -53 c8 -31 18 -57 22 -57 8 0 40 62 54 104 9 26
20 12 41 -54 l18 -55 15 35 c8 19 18 45 23 58 9 22 39 31 39 11 0 -17 -61
-193 -70 -203 -5 -4 -18 19 -30 53 -13 34 -25 59 -28 56 -3 -3 -15 -29 -26
-57 -12 -29 -27 -53 -35 -53 -15 0 -61 148 -61 198 0 48 23 25 38 -36z m713
41 c48 -18 60 -85 20 -115 -14 -10 -13 -15 7 -51 26 -47 27 -52 8 -52 -8 0
-28 19 -43 42 -16 24 -37 44 -47 46 -15 3 -17 -1 -11 -42 8 -48 1 -55 -29 -33
-16 12 -17 24 -11 119 l7 106 37 -5 c20 -2 48 -9 62 -15z m669 -60 c49 -104
58 -138 36 -138 -8 0 -20 8 -25 19 -6 10 -26 21 -48 25 -34 5 -41 3 -65 -27
-20 -24 -30 -29 -38 -21 -9 9 0 35 34 106 25 52 46 99 46 106 0 33 25 4 60
-70z m470 -26 c22 -47 40 -93 40 -103 0 -28 -35 -23 -48 7 -11 22 -17 25 -60
22 -38 -2 -49 -7 -57 -25 -11 -26 -35 -31 -35 -7 0 8 11 34 24 57 13 23 27 58
31 77 4 19 14 45 22 58 20 33 35 18 83 -86z m858 -2 c2 -66 -1 -107 -8 -114
-12 -11 -18 -6 -89 82 -19 23 -36 40 -39 37 -3 -3 -7 -28 -7 -55 -3 -68 -3
-70 -20 -70 -12 0 -15 17 -15 94 0 52 -3 101 -6 110 -13 35 25 13 80 -44 32
-33 59 -60 62 -60 2 0 4 26 4 58 0 32 3 62 7 66 20 19 28 -9 31 -104z m-3820
78 c-2 -17 -11 -24 -34 -26 l-30 -3 4 -84 c4 -81 4 -85 -17 -85 -22 0 -24 10
-23 123 1 39 -2 47 -18 47 -19 0 -50 25 -50 41 0 5 39 9 86 9 83 0 85 -1 82
-22z m784 -88 c3 -97 1 -110 -13 -110 -25 0 -30 24 -23 114 6 92 9 106 23 106
6 0 11 -48 13 -110z m218 92 c0 -24 -18 -32 -72 -32 -32 0 -39 -3 -36 -17 3
-15 12 -17 46 -15 37 3 42 1 42 -17 0 -20 -10 -25 -65 -33 -11 -2 -21 -11 -23
-21 -3 -14 4 -17 47 -17 48 0 51 -2 51 -25 0 -24 -2 -25 -64 -25 l-65 0 -3
106 c-2 58 -2 106 -1 107 1 1 33 3 72 5 65 3 71 1 71 -16z m617 -4 c16 -13 27
-70 19 -96 -5 -14 -20 -22 -59 -28 -49 -9 -52 -11 -55 -41 -2 -21 -9 -33 -18
-33 -11 0 -14 21 -14 111 l0 110 57 -6 c32 -3 63 -11 70 -17z m473 8 c0 -15
-30 -26 -73 -26 -24 0 -28 -4 -25 -22 3 -20 8 -23 46 -20 36 3 42 1 42 -16 0
-16 -9 -20 -45 -25 -52 -5 -60 -10 -52 -32 5 -10 20 -15 51 -15 43 0 65 -18
50 -41 -7 -12 -131 -11 -139 1 -4 6 -3 55 1 110 l7 100 68 0 c52 0 69 -3 69
-14z m199 -12 c61 -51 30 -114 -56 -114 l-43 0 0 -40 c0 -29 -4 -40 -15 -40
-15 0 -31 42 -22 58 3 4 7 39 8 78 1 38 4 72 6 77 2 4 24 7 48 7 32 0 51 -7
74 -26z m455 4 c21 -29 20 -63 -1 -98 -14 -24 -15 -34 -5 -55 16 -34 15 -45
-3 -45 -8 0 -24 18 -35 41 -27 52 -54 50 -58 -4 -2 -24 -8 -37 -18 -37 -11 0
-14 21 -14 110 l0 110 59 0 c51 0 62 -3 75 -22z m440 6 c13 -35 7 -43 -30 -37
l-36 6 2 -74 c3 -96 2 -99 -14 -99 -20 0 -26 23 -26 100 0 67 0 69 -27 72 -20
2 -29 9 -31 26 -3 21 -1 22 76 22 64 0 81 -3 86 -16z m104 -99 c4 -91 3 -95
-17 -95 -20 0 -21 5 -21 98 0 54 3 102 7 106 17 17 28 -22 31 -109z m241 80
c17 -20 34 -47 37 -60 14 -57 -46 -125 -109 -125 -45 0 -87 49 -87 100 0 108
94 158 159 85z m-4181 -158 c3 -22 -1 -27 -18 -27 -23 0 -35 22 -26 46 10 25
41 12 44 -19z"/>
<path d="M7021 8021 c-9 -6 -13 -35 -12 -109 0 -56 3 -113 7 -128 7 -26 8 -26
68 -19 33 3 61 7 62 8 1 1 4 57 7 123 6 119 5 122 -16 128 -32 9 -100 7 -116
-3z"/>
<path d="M6783 7870 c-28 -11 -30 -56 -7 -136 14 -49 34 -81 34 -55 0 8 6 7
19 -1 16 -10 26 -5 67 27 27 22 51 41 53 42 8 5 -34 87 -57 110 -24 24 -68 29
-109 13z"/>
<path d="M7268 7854 c-58 -31 -63 -85 -14 -133 33 -32 37 -33 66 -21 32 13 73
60 84 96 4 14 -1 30 -15 47 -24 31 -76 36 -121 11z"/>
<path d="M7008 7642 c-59 -36 -73 -124 -30 -182 23 -31 91 -54 136 -46 80 15
121 117 74 186 -13 19 -35 40 -48 47 -35 18 -100 16 -132 -5z"/>
<path d="M7353 7613 c-21 -4 -23 -10 -23 -79 l0 -74 31 0 c18 0 61 -5 97 -12
62 -12 65 -11 83 11 21 26 25 93 9 135 -9 25 -12 26 -92 25 -46 -1 -93 -4
-105 -6z"/>
<path d="M6643 7603 c-27 -5 -35 -31 -31 -99 3 -48 4 -49 38 -52 19 -2 72 -1
118 3 l83 7 -6 56 c-11 97 -6 92 -98 91 -45 -1 -92 -4 -104 -6z"/>
<path d="M7260 7362 c-38 -19 -56 -34 -58 -50 -5 -34 35 -95 80 -120 l40 -24
42 30 c63 46 62 83 -4 151 -22 22 -41 41 -42 41 -2 0 -28 -13 -58 -28z"/>
<path d="M6815 7362 c-41 -26 -55 -45 -61 -84 -6 -42 10 -62 62 -75 54 -13 93
9 120 68 l18 42 -39 33 c-44 39 -58 41 -100 16z"/>
<path d="M7017 7303 c-11 -10 -8 -199 3 -227 10 -28 35 -33 99 -20 42 9 46 31
31 154 l-12 100 -57 0 c-32 0 -61 -3 -64 -7z"/>
<path d="M5225 8005 c-62 -61 11 -158 78 -104 53 41 22 128 -46 129 -4 0 -19
-11 -32 -25z"/>
<path d="M4040 7690 c-24 -24 -25 -48 -4 -78 17 -24 62 -30 82 -10 15 15 16
63 2 89 -14 25 -54 25 -80 -1z"/>
<path d="M4218 6827 c-14 -12 -31 -32 -37 -44 -14 -27 -14 -98 -1 -124 27 -49
131 -66 167 -26 65 71 55 163 -24 201 -46 22 -73 20 -105 -7z"/>
<path d="M6315 6295 c-14 -13 -25 -35 -25 -48 0 -32 43 -77 74 -77 30 0 66 42
66 77 0 29 -42 73 -70 73 -11 0 -32 -11 -45 -25z"/>
<path d="M4906 6004 c-9 -8 -16 -24 -16 -34 0 -40 60 -66 88 -38 28 28 2 88
-38 88 -10 0 -26 -7 -34 -16z"/>
<path d="M1880 3579 c0 -90 -3 -173 -6 -185 -5 -20 -3 -20 143 -16 169 5 206
17 248 80 50 76 43 161 -18 220 -45 43 -79 52 -234 59 l-133 6 0 -164z"/>
<path d="M2855 3442 c-67 -24 -111 -75 -130 -152 l-6 -25 188 0 188 0 -1 37
c-1 44 -40 100 -86 124 -34 18 -122 27 -153 16z"/>
<path d="M4470 3428 c-35 -18 -51 -35 -72 -77 -46 -90 -54 -86 158 -87 l186
-2 -5 39 c-16 118 -156 185 -267 127z"/>
<path d="M5284 3151 c-88 -11 -133 -57 -120 -124 11 -57 37 -72 121 -71 117 2
175 51 175 147 0 32 -5 47 -16 51 -18 7 -88 6 -160 -3z"/>
<path d="M2796 2464 c-10 -27 -7 -34 19 -34 28 0 29 3 15 31 -13 23 -26 24
-34 3z"/>
<path d="M4117 2513 c-4 -3 -7 -17 -7 -30 0 -20 5 -23 35 -23 24 0 38 5 42 16
10 28 -49 59 -70 37z"/>
<path d="M5547 2514 c-16 -17 -6 -44 19 -50 30 -8 47 6 42 32 -3 19 -47 32
-61 18z"/>
<path d="M6220 2456 c0 -19 5 -26 20 -26 17 0 19 3 10 19 -16 32 -30 34 -30 7z"/>
<path d="M6670 2460 c-9 -18 -8 -20 15 -20 27 0 28 1 19 24 -8 22 -21 20 -34
-4z"/>
<path d="M5320 2484 c0 -32 2 -35 26 -32 38 4 55 35 30 54 -36 26 -56 18 -56
-22z"/>
<path d="M5987 2513 c-16 -15 -5 -44 20 -54 34 -13 53 -5 53 20 0 29 -54 54
-73 34z"/>
<path d="M6432 2488 c2 -18 10 -23 33 -23 23 0 31 5 33 23 3 19 -1 22 -33 22
-32 0 -36 -3 -33 -22z"/>
<path d="M7232 2509 c-43 -16 -49 -99 -7 -115 26 -10 65 6 77 31 22 48 -23
102 -70 84z"/>
</g>
</svg>
